<svg width="200" height="200" viewBox="0 0 200 200" xmlns="http://www.w3.org/2000/svg">
  <!-- Background Circle with Glow -->
  <circle cx="100" cy="100" r="95" fill="none" stroke="#06B6D4" stroke-width="2" opacity="0.8">
    <animate attributeName="opacity" values="0.6;1;0.6" dur="4s" repeatCount="indefinite" />
  </circle>
  
  <!-- Tech Circuit Pattern -->
  <g stroke="#0EA5E9" stroke-width="1.5" fill="none" opacity="0.8">
    <path d="M30,100 Q65,60 100,60 Q135,60 170,100" />
    <path d="M40,130 Q65,100 100,100 Q135,100 160,130" />
    <path d="M50,160 Q70,140 100,140 Q130,140 150,160" />
    <circle cx="100" cy="100" r="40" />
    <circle cx="100" cy="100" r="20" />
  </g>
  
  <!-- Abstract Head Silhouette -->
  <path d="M75,70 L85,40 L115,40 L125,70 V110 L115,140 H85 L75,110 Z" fill="#06B6D4" opacity="0.25" />
  
  <!-- Digital Face Elements -->
  <g fill="#06B6D4" opacity="0.9">
    <!-- Eyes -->
    <rect x="82" y="80" width="12" height="4" rx="1">
      <animate attributeName="opacity" values="0.7;1;0.7" dur="2s" repeatCount="indefinite" />
    </rect>
    <rect x="106" y="80" width="12" height="4" rx="1">
      <animate attributeName="opacity" values="0.7;1;0.7" dur="2s" repeatCount="indefinite" />
    </rect>
    
    <!-- Mouth -->
    <path d="M85,110 L100,120 L115,110" stroke="#06B6D4" stroke-width="2" fill="none" />
  </g>
  
  <!-- Tech Details -->
  <g stroke="#0EA5E9" stroke-width="1" opacity="0.8">
    <line x1="70" y1="60" x2="60" y2="50" />
    <line x1="130" y1="60" x2="140" y2="50" />
    <line x1="70" y1="120" x2="60" y2="130" />
    <line x1="130" y1="120" x2="140" y2="130" />
  </g>
  
  <!-- Cybernetic Connections -->
  <g>
    <line x1="60" y1="50" x2="30" y2="30" stroke="#06B6D4" stroke-width="1">
      <animate attributeName="opacity" values="0.3;0.8;0.3" dur="3s" repeatCount="indefinite" />
    </line>
    <line x1="140" y1="50" x2="170" y2="30" stroke="#06B6D4" stroke-width="1">
      <animate attributeName="opacity" values="0.3;0.8;0.3" dur="3.5s" repeatCount="indefinite" />
    </line>
    <line x1="60" y1="130" x2="30" y2="150" stroke="#06B6D4" stroke-width="1">
      <animate attributeName="opacity" values="0.3;0.8;0.3" dur="4s" repeatCount="indefinite" />
    </line>
    <line x1="140" y1="130" x2="170" y2="150" stroke="#06B6D4" stroke-width="1">
      <animate attributeName="opacity" values="0.3;0.8;0.3" dur="4.5s" repeatCount="indefinite" />
    </line>
  </g>
  
  <!-- Small Accent Points -->
  <g fill="#06B6D4">
    <circle cx="30" cy="30" r="2">
      <animate attributeName="opacity" values="0.5;1;0.5" dur="2s" repeatCount="indefinite" />
    </circle>
    <circle cx="170" cy="30" r="2">
      <animate attributeName="opacity" values="0.5;1;0.5" dur="2.5s" repeatCount="indefinite" />
    </circle>
    <circle cx="30" cy="150" r="2">
      <animate attributeName="opacity" values="0.5;1;0.5" dur="3s" repeatCount="indefinite" />
    </circle>
    <circle cx="170" cy="150" r="2">
      <animate attributeName="opacity" values="0.5;1;0.5" dur="3.5s" repeatCount="indefinite" />
    </circle>
  </g>
  
  <!-- Extra Glitch Effect -->
  <g opacity="0.5">
    <rect x="85" y="95" width="30" height="2" fill="#0EA5E9">
      <animate attributeName="x" values="85;80;85;90;85" dur="5s" repeatCount="indefinite" />
      <animate attributeName="opacity" values="0;0.8;0" dur="5s" repeatCount="indefinite" />
    </rect>
    <rect x="75" y="105" width="50" height="1" fill="#06B6D4">
      <animate attributeName="x" values="75;70;75;80;75" dur="7s" repeatCount="indefinite" />
      <animate attributeName="opacity" values="0;0.7;0" dur="7s" repeatCount="indefinite" />
    </rect>
  </g>
</svg> 